PathFileType	4	(X/Y/Z)	s07c0103.trc
DataRate	CameraRate	NumFrames	NumMarkers	Units	OrigDataRate	OrigDataStartFrame	OrigNumFrames
200	200	4	47	mm	200	500	2000
Frame#	Time	racr			lacr			c7			jug			rlel			rdr			llel			ldr			s2			lic			ric			lasi			rasi			rpsi			lpsi			rgt			lgt			rth1			rth2			rth3			rth4			rlfc			rmfc			rsh1			rsh2			rsh3			rsh4			rcal			rtoe			rmt5			lth1			lth2			lth4			lth3			llfc			lmfc			lsh1			lsh2			lsh3			lsh4			llmal			lcal			ltoe			lmt5			SBIKE			LBIKE			RBIKE			
		X1	Y1	Z1	X2	Y2	Z2	X3	Y3	Z3	X4	Y4	Z4	X5	Y5	Z5	X6	Y6	Z6	X7	Y7	Z7	X8	Y8	Z8	X9	Y9	Z9	X10	Y10	Z10	X11	Y11	Z11	X12	Y12	Z12	X13	Y13	Z13	X14	Y14	Z14	X15	Y15	Z15	X16	Y16	Z16	X17	Y17	Z17	X18	Y18	Z18	X19	Y19	Z19	X20	Y20	Z20	X21	Y21	Z21	X22	Y22	Z22	X23	Y23	Z23	X24	Y24	Z24	X25	Y25	Z25	X26	Y26	Z26	X27	Y27	Z27	X28	Y28	Z28	X29	Y29	Z29	X30	Y30	Z30	X31	Y31	Z31	X32	Y32	Z32	X33	Y33	Z33	X34	Y34	Z34	X35	Y35	Z35	X36	Y36	Z36	X37	Y37	Z37	X38	Y38	Z38	X39	Y39	Z39	X40	Y40	Z40	X41	Y41	Z41	X42	Y42	Z42	X43	Y43	Z43	X44	Y44	Z44	X45	Y45	Z45	X46	Y46	Z46	X47	Y47	Z47	
500	2.5000	519.849817	1348.975407	-145.888822	479.227582	1361.216847	-387.708712	465.336892	1395.249872	-263.685166	444.784527	1250.685315	-272.254312	501.624452	1061.214980	61.364537	713.027114	913.813686	-68.621917	488.705573	1057.917957	-553.797606	715.418634	910.667889	-426.291723	-137.667428	1197.132659	-216.922981	6.942900	1276.039317	-361.573649	54.140389	1213.245598	-80.222667	35.238284	1195.851371	-347.384516	62.539512	1167.016121	-102.751339	-102.947671	1229.450075	-163.162656	-104.823594	1257.072218	-265.631725	-6.478396	1088.036862	-49.697316	-43.983811	1122.747222	-409.840120	132.417171	1010.680232	-57.002904	212.653137	978.792621	-74.888158	269.568202	915.517212	-78.931189	229.500735	1007.951314	-91.090192	353.834441	816.277616	-120.329849	333.781221	804.085166	-225.996064	257.776633	714.725874	-90.367216	215.413239	637.567914	-99.978411	142.169438	590.630811	-90.426822	226.845420	626.033254	-138.046007	-20.999713	526.402252	-112.353823	115.316059	269.847647	-125.894270	48.180521	319.554767	-56.342627	42.254255	1024.698959	-422.074844	121.661902	985.100439	-422.244913	145.517063	1011.386686	-414.213565	171.001793	911.071220	-418.465148	290.297039	779.157930	-387.673051	280.814260	757.172839	-294.630568	259.115821	633.706571	-414.489278	264.761629	549.749299	-395.793031	228.488485	467.160155	-403.728324	267.022450	552.141882	-353.626525	196.466544	332.349563	-404.068178	136.531704	274.552468	-370.918671	419.619472	339.086871	-364.501958	350.896845	290.316718	-429.575347	-262.161097	965.075937	-236.968076	-82.894928	78.963817	-436.839626	-82.847233	78.957084	-39.371647	
501	2.5050	518.732860	1352.362210	-143.361442	480.336289	1364.446695	-387.008142	465.230222	1399.510608	-262.144516	443.230577	1255.170110	-270.945607	501.208743	1062.312693	60.844036	713.064932	914.019700	-68.757726	490.192040	1060.638490	-553.038257	715.666002	910.796474	-426.092858	-136.562217	1197.913386	-218.054398	7.477242	1276.565550	-363.003392	54.683577	1215.985677	-81.165860	36.170338	1196.277588	-348.705650	63.433674	1169.753384	-103.645285	-102.214218	1230.892680	-164.393004	-103.888650	1257.591278	-267.020855	-4.920707	1091.076994	-49.700279	-43.330379	1122.003091	-410.139934	134.661300	1015.578797	-57.591301	215.373248	984.875598	-75.248455	273.059337	922.498862	-78.991635	231.642898	1013.293388	-92.665665	358.807972	824.160534	-120.983220	338.136511	810.626063	-223.884320	262.861782	723.051925	-91.037505	220.233932	646.018476	-100.504673	146.838543	599.221681	-90.854087	231.969029	634.639299	-138.262600	-15.580758	537.110003	-111.446687	116.901524	278.349422	-125.975157	50.395844	328.862348	-56.405802	40.550055	1021.930620	-422.691745	118.797487	980.222981	-423.380638	143.418841	1005.805239	-415.788816	166.066100	904.841757	-419.427071	282.567580	771.322848	-389.377065	275.348689	748.592679	-297.677655	253.194358	625.692421	-415.684895	260.065313	541.642147	-396.886818	224.844707	458.678668	-404.462485	261.875145	544.550068	-354.618204	194.362606	323.450220	-404.414835	134.487080	265.824412	-371.068849	418.225259	330.332082	-366.177714	348.946145	280.585150	-429.500229	-262.114695	965.107356	-237.000806	-82.897728	78.978190	-436.844328	-82.860874	78.968302	-39.373010	
502	2.5100	517.379962	1356.129262	-140.934356	481.475720	1368.060884	-386.012700	464.931303	1404.287966	-260.463967	441.470122	1260.204041	-269.730601	500.926291	1063.483547	59.774354	713.143642	914.235877	-69.103219	492.001933	1063.853035	-552.116582	715.976999	910.913323	-425.958487	-135.364410	1198.781367	-219.213416	8.244547	1276.988063	-364.642182	55.201704	1218.997234	-82.034576	37.233607	1196.601788	-349.935578	64.364292	1172.788688	-104.595012	-101.367347	1232.293402	-165.787428	-102.901545	1258.158255	-268.578786	-3.070304	1094.294644	-49.725517	-42.598026	1121.198215	-410.409824	136.990730	1020.594422	-58.543603	218.226820	991.116938	-75.886800	276.732243	929.507182	-79.177617	234.226968	1019.739957	-93.088071	364.219104	832.870353	-120.640621	343.720728	818.958812	-225.953377	268.032590	731.329048	-91.755686	225.106706	654.400577	-101.035072	151.602434	608.067529	-91.233913	236.809441	643.136234	-138.758874	-11.156584	546.677289	-112.797364	119.128346	286.900617	-126.192687	53.188544	338.234788	-56.637302	38.770714	1019.037677	-422.873302	115.624592	975.107097	-424.443559	141.081683	1000.175069	-417.403451	160.703872	898.485766	-420.270113	274.600238	763.334484	-390.857938	267.916318	741.070957	-299.393662	246.942088	617.769508	-416.756340	254.881413	533.952782	-397.873977	220.754069	450.471809	-405.300034	256.501881	536.675768	-355.811939	191.771881	314.763696	-404.612285	131.934099	257.452452	-371.242398	415.616875	319.029389	-364.143497	346.505566	270.867879	-429.436089	-262.093370	965.131047	-237.043742	-82.905362	79.018166	-436.866537	-82.872433	79.014477	-39.350032	
503	2.5150	515.855185	1360.268062	-138.502852	482.649745	1372.032137	-384.590385	464.441427	1409.504362	-258.838531	439.641749	1265.679954	-268.682041	500.646679	1064.981028	58.475807	713.376303	914.493560	-69.555181	494.122132	1067.559520	-551.032281	716.347616	911.067137	-425.895213	-134.077349	1199.613013	-220.355724	9.257912	1277.263808	-366.422730	55.886242	1222.258870	-83.684610	38.455368	1196.975336	-351.287633	65.406302	1175.947593	-105.588109	-100.428591	1233.634285	-167.334819	-101.863233	1258.723946	-270.281137	-1.030179	1097.814254	-49.692299	-41.844836	1120.370600	-410.633200	139.653776	1026.031327	-59.488128	221.358996	997.587164	-76.524710	280.618369	936.611052	-80.043426	236.989976	1026.318594	-93.831266	369.528807	841.065326	-121.584016	349.253903	827.205272	-226.592438	273.283447	739.926290	-92.374561	230.238901	663.054230	-101.508476	156.589636	616.679902	-91.715591	241.894033	651.539515	-139.295474	-6.228260	556.432611	-113.272289	120.883082	294.878194	-127.582910	56.708829	347.568494	-56.587620	36.830991	1016.194120	-422.966230	112.165297	969.948041	-425.502243	138.462484	994.349621	-419.196251	155.073435	892.105542	-421.100797	266.691159	755.586193	-392.192464	260.099388	733.653202	-300.925511	240.228422	609.971573	-417.855027	249.211673	526.369330	-398.853051	216.150426	442.341394	-406.112825	250.754816	529.384444	-356.764644	188.948784	306.000227	-404.669780	128.755545	249.531330	-371.437620	412.872766	309.049663	-364.020229	343.408273	261.555569	-429.501167	-262.097361	965.149729	-237.137137	-82.905935	79.009131	-436.870652	-82.875443	79.000192	-39.388665	
